<?xml version="1.0" standalone="no"?>
<!DOCTYPE svg PUBLIC "-//W3C//DTD SVG 20010904//EN"
 "http://www.w3.org/TR/2001/REC-SVG-20010904/DTD/svg10.dtd">
<svg version="1.0" xmlns="http://www.w3.org/2000/svg"
 width="1024.000000pt" height="1024.000000pt" viewBox="0 0 1024.000000 1024.000000"
 preserveAspectRatio="xMidYMid meet">

<g transform="translate(0.000000,1024.000000) scale(0.100000,-0.100000)"
fill="#000000" stroke="none">
<path d="M1621 6484 c-197 -53 -374 -232 -426 -430 -20 -75 -19 -210 1 -288
39 -150 119 -248 328 -397 77 -56 197 -143 266 -194 69 -50 155 -113 192 -139
87 -60 119 -103 211 -284 78 -152 97 -178 120 -169 7 3 55 96 107 208 86 187
94 209 94 264 0 74 -26 136 -86 201 -36 40 -472 374 -702 537 -36 26 -75 62
-86 80 -43 70 -14 163 63 197 40 19 71 20 600 20 l559 0 27 28 c33 34 176 345
168 366 -6 14 -79 16 -694 15 -567 0 -697 -3 -742 -15z"/>
<path d="M4433 6349 c-76 -13 -141 -46 -200 -104 -65 -64 -88 -131 -81 -245 7
-118 60 -200 166 -254 18 -9 85 -30 149 -47 138 -35 172 -52 196 -102 32 -64
3 -128 -76 -169 -82 -42 -286 -20 -394 42 l-33 19 0 -113 0 -114 28 -11 c98
-40 332 -54 450 -26 83 20 128 44 179 97 55 57 83 123 90 212 14 190 -86 302
-320 356 -147 34 -199 72 -201 151 -2 75 60 112 186 111 89 0 156 -16 231 -54
l37 -18 0 115 0 114 -52 15 c-120 35 -246 43 -355 25z"/>
<path d="M7053 6057 l-42 -10 -39 -126 c-22 -69 -64 -200 -92 -290 -29 -91
-55 -160 -60 -155 -9 10 -61 166 -136 417 l-47 157 -109 -2 c-59 -2 -108 -4
-108 -5 0 -6 261 -807 266 -814 3 -5 65 -9 138 -9 l132 0 137 417 c75 229 136
417 134 418 -10 8 -140 9 -174 2z"/>
<path d="M3291 6047 c-18 -9 -46 -58 -103 -182 -155 -335 -328 -715 -447 -983
-67 -151 -138 -306 -157 -344 -20 -39 -84 -181 -143 -317 -60 -135 -120 -268
-134 -296 l-25 -50 -264 535 c-210 425 -270 539 -294 555 -26 18 -49 20 -244
23 -235 4 -275 0 -289 -27 -8 -15 55 -149 309 -662 497 -1001 471 -951 509
-976 l34 -23 674 0 c725 0 712 -1 761 52 25 27 162 356 162 388 0 11 -6 20
-12 21 -7 0 -208 0 -445 -1 -353 -1 -433 1 -433 12 0 7 25 72 57 143 113 260
442 998 550 1235 177 388 383 857 383 871 0 36 -20 39 -224 39 -140 0 -208 -4
-225 -13z"/>
<path d="M5175 6050 c-22 -5 -57 -14 -77 -20 l-38 -11 0 -100 0 -99 38 19 c63
32 142 51 215 51 114 0 161 -35 169 -125 l3 -40 -140 -7 c-167 -7 -230 -24
-284 -76 -45 -43 -61 -90 -61 -178 0 -109 34 -171 120 -218 109 -59 250 -44
329 36 l41 40 0 -51 0 -52 103 3 102 3 0 305 c0 346 -5 377 -73 443 -67 66
-118 81 -272 84 -74 1 -153 -2 -175 -7z m305 -517 c0 -94 -63 -153 -163 -153
-48 0 -62 4 -82 25 -28 27 -35 98 -12 128 20 29 87 46 175 47 l82 0 0 -47z"/>
<path d="M6220 6051 c-52 -16 -91 -43 -120 -83 l-30 -41 0 56 0 57 -105 0
-105 0 0 -410 0 -410 105 0 105 0 0 228 c0 127 5 244 11 265 22 81 113 143
198 135 l41 -4 0 108 0 108 -37 -1 c-21 0 -49 -4 -63 -8z"/>
<path d="M7435 6054 c-11 -3 -44 -12 -72 -20 l-53 -15 0 -99 0 -99 67 32 c55
25 84 32 153 35 134 7 181 -22 195 -119 l7 -46 -139 -6 c-174 -6 -232 -23
-290 -82 -32 -34 -44 -56 -53 -100 -22 -104 6 -203 73 -262 105 -92 309 -79
386 24 l20 28 1 -53 0 -53 101 3 100 3 -1 312 c-1 349 -4 370 -67 435 -64 65
-118 82 -273 84 -74 2 -144 0 -155 -2z m291 -521 c-14 -105 -67 -153 -167
-153 -52 0 -60 3 -83 31 -49 57 -26 140 42 155 15 3 32 7 37 9 6 2 48 4 94 4
l84 1 -7 -47z"/>
<path d="M8425 6041 c-22 -10 -59 -37 -82 -61 l-43 -42 0 51 0 51 -105 0 -105
0 0 -410 0 -410 109 0 110 0 3 273 c3 312 6 323 88 365 51 26 87 28 135 8 65
-28 69 -47 73 -363 l4 -283 104 0 104 0 0 308 c0 363 -4 387 -78 461 -29 28
-63 51 -88 59 -63 18 -182 15 -229 -7z"/>
<path d="M4170 4460 l0 -530 315 0 315 0 0 100 0 100 -205 0 -205 0 0 430 0
430 -110 0 -110 0 0 -530z"/>
<path d="M5730 4460 l0 -530 106 0 107 0 -5 45 -6 45 40 -36 c61 -54 100 -68
198 -68 94 0 148 18 208 68 74 63 122 204 122 358 0 280 -142 447 -361 424
-73 -7 -115 -24 -162 -66 l-37 -32 0 161 0 161 -105 0 -105 0 0 -530z m486 88
c40 -44 56 -100 57 -193 0 -96 -18 -166 -56 -210 -64 -73 -182 -66 -251 15
-25 30 -26 37 -26 153 0 135 8 178 42 215 46 50 79 63 142 59 53 -3 62 -7 92
-39z"/>
<path d="M5093 4759 c-34 -5 -79 -15 -100 -22 l-38 -12 -3 -99 c-2 -77 0 -97
10 -93 127 56 145 61 223 61 118 1 166 -31 180 -120 l6 -41 -125 -7 c-266 -15
-352 -70 -364 -234 -5 -84 10 -142 51 -189 47 -54 117 -83 201 -83 93 0 142
17 193 66 l43 41 0 -49 0 -48 101 0 100 0 -3 328 -3 327 -25 45 c-65 116 -221
161 -447 129z m267 -514 c0 -99 -61 -159 -164 -160 -51 0 -61 4 -82 28 -17 20
-24 40 -24 71 0 76 51 101 218 105 l52 1 0 -45z"/>
<path d="M6782 4756 c-115 -29 -190 -115 -199 -229 -9 -106 30 -188 108 -228
23 -11 86 -29 141 -39 127 -25 148 -37 148 -90 0 -48 -31 -76 -95 -86 -58 -8
-166 11 -234 42 -29 13 -55 24 -58 24 -2 0 -2 -44 -1 -97 l3 -98 80 -18 c117
-26 301 -20 372 12 63 28 118 85 132 138 17 60 13 163 -8 208 -35 76 -97 112
-241 140 -123 25 -140 36 -140 91 0 87 125 97 343 27 15 -5 17 4 17 89 l0 95
-57 12 c-91 19 -250 23 -311 7z"/>
</g>
</svg>
